<svg width="30" height="31" viewBox="0 0 30 31" fill="none" xmlns="http://www.w3.org/2000/svg">
<path fill-rule="evenodd" clip-rule="evenodd" d="M15 15.4287H29V15.4884C29.3304 15.458 29.6639 15.438 30 15.4287C21.8112 15.2026 15.2261 8.6175 15 0.428711L15 15.4287Z" fill="#FF5757"/>
<path fill-rule="evenodd" clip-rule="evenodd" d="M15 15.4882H29V15.4286C29.3304 15.459 29.6639 15.479 30 15.4882C21.8112 15.7144 15.2261 22.2995 15 30.4883L15 15.4882Z" fill="#FF8A00"/>
<path fill-rule="evenodd" clip-rule="evenodd" d="M0 15.4287C8.18878 15.2026 14.7739 8.6175 15 0.428711V15.4287H1V15.4884C0.669588 15.458 0.336145 15.438 0 15.4287Z" fill="#FFF96B"/>
<path fill-rule="evenodd" clip-rule="evenodd" d="M0 15.4883C8.18878 15.7144 14.7739 22.2995 15 30.4883V15.4883H1V15.4286C0.669588 15.459 0.336145 15.479 0 15.4883Z" fill="#FF8A00"/>
</svg>
