<svg width="21" height="20" viewBox="0 0 21 20" fill="none" xmlns="http://www.w3.org/2000/svg">
<rect x="0.736328" width="20" height="20" rx="4" fill="url(#paint0_linear_40_11053)"/>
<path d="M4.53799 6.99219C3.76095 4.90222 4.97693 3.90735 5.97967 3.55945C6.26174 3.46158 6.56084 3.59359 6.73156 3.83853L8.35812 6.17228C8.5586 6.45993 8.53323 6.84235 8.34155 7.13594C8.10776 7.49404 7.97595 7.81559 7.90174 8.09514C7.76493 8.61045 7.96863 9.14288 8.2914 9.56723C9.70605 11.4271 11.1935 12.797 11.9403 12.832C12.4276 12.8549 13.0065 12.5369 13.403 12.2689C13.6918 12.0738 14.075 12.0481 14.365 12.2415L16.7492 13.8309C16.9973 13.9963 17.1358 14.2923 17.0572 14.5798C16.4837 16.6777 14.4136 16.4353 13.3856 16.0156C8.42471 13.7109 5.6708 10.0391 4.53799 6.99219Z" fill="#FEFEFE"/>
<defs>
<linearGradient id="paint0_linear_40_11053" x1="10.7363" y1="0" x2="10.7363" y2="20" gradientUnits="userSpaceOnUse">
<stop stop-color="#5CF777"/>
<stop offset="1" stop-color="#0EBC29"/>
</linearGradient>
</defs>
</svg>
