<svg width="21" height="21" viewBox="0 0 21 21" fill="none" xmlns="http://www.w3.org/2000/svg">
<path d="M10.7363 20.2578C16.2592 20.2578 20.7363 15.7807 20.7363 10.2578C20.7363 4.73497 16.2592 0.257812 10.7363 0.257812C5.21349 0.257812 0.736328 4.73497 0.736328 10.2578C0.736328 15.7807 5.21349 20.2578 10.7363 20.2578Z" fill="#34AADF"/>
<path d="M5.02308 10.0387C5.02308 10.0387 9.97657 7.93135 11.6945 7.18929C12.3531 6.89249 14.5865 5.94265 14.5865 5.94265C14.5865 5.94265 15.6173 5.52713 15.5313 6.53629C15.5027 6.95185 15.2736 8.40623 15.0446 9.97937C14.701 12.2055 14.3287 14.6394 14.3287 14.6394C14.3287 14.6394 14.2715 15.3221 13.7847 15.4408C13.298 15.5595 12.4962 15.0253 12.3531 14.9065C12.2385 14.8175 10.2056 13.4818 9.46117 12.8288C9.26073 12.6507 9.03168 12.2946 9.48978 11.879C10.5206 10.8995 11.7518 9.68257 12.4962 8.91085C12.8398 8.55465 13.1834 7.72357 11.7518 8.73273C9.71887 10.1872 7.71457 11.5525 7.71457 11.5525C7.71457 11.5525 7.25643 11.8493 6.39746 11.5822C5.53844 11.3151 4.53629 10.9589 4.53629 10.9589C4.53629 10.9589 3.84914 10.5137 5.02308 10.0387Z" fill="white"/>
</svg>
