<svg width="21" height="21" viewBox="0 0 21 21" fill="none" xmlns="http://www.w3.org/2000/svg">
<g clip-path="url(#clip0_40_11056)">
<g clip-path="url(#clip1_40_11056)">
<rect width="20.2578" height="20.2578" transform="translate(0.736328)" fill="white"/>
<rect x="0.736328" width="20.2578" height="20.2578" fill="url(#paint0_linear_40_11056)"/>
</g>
</g>
<path fill-rule="evenodd" clip-rule="evenodd" d="M16.4381 7.45357C16.5213 7.19212 16.4381 7 16.0418 7H14.7316C14.3984 7 14.2449 7.16596 14.1616 7.34896C14.1616 7.34896 13.4953 8.87843 12.5514 9.87192C12.246 10.1595 12.1072 10.251 11.9406 10.251C11.8573 10.251 11.7367 10.1595 11.7367 9.89808V7.45357C11.7367 7.13983 11.6401 7 11.3624 7H9.30346C9.09527 7 8.97006 7.14561 8.97006 7.28362C8.97006 7.58104 9.44199 7.64963 9.49063 8.48627V10.3033C9.49063 10.7017 9.41424 10.7739 9.24766 10.7739C8.80348 10.7739 7.72302 9.23763 7.0822 7.4797C6.95662 7.13802 6.83066 7 6.4958 7H5.18556C4.8112 7 4.73633 7.16596 4.73633 7.34896C4.73633 7.67578 5.18053 9.29675 6.8046 11.4406C7.88731 12.9047 9.41277 13.6983 10.8009 13.6983C11.6337 13.6983 11.7368 13.5221 11.7368 13.2184V12.1119C11.7368 11.7593 11.8157 11.689 12.0794 11.689C12.2737 11.689 12.6069 11.7805 13.3842 12.4864C14.2726 13.323 14.4191 13.6983 14.9188 13.6983H16.229C16.6034 13.6983 16.7905 13.5221 16.6826 13.1742C16.5644 12.8275 16.1403 12.3245 15.5774 11.7282C15.272 11.3883 14.814 11.0223 14.6751 10.8393C14.4808 10.604 14.5363 10.4994 14.6751 10.2902C14.6751 10.2902 16.2715 8.17253 16.4381 7.45357Z" fill="white"/>
<defs>
<linearGradient id="paint0_linear_40_11056" x1="10.8652" y1="0" x2="10.8652" y2="20.2578" gradientUnits="userSpaceOnUse">
<stop stop-color="#15C7FA"/>
<stop offset="1" stop-color="#216FF0"/>
</linearGradient>
<clipPath id="clip0_40_11056">
<rect x="0.736328" width="20.2578" height="20.2578" rx="4" fill="white"/>
</clipPath>
<clipPath id="clip1_40_11056">
<rect width="20.2578" height="20.2578" fill="white" transform="translate(0.736328)"/>
</clipPath>
</defs>
</svg>
